{
    "asset" : {
        "generator" : "Khronos glTF Blender I/O v1.4.40",
        "version" : "2.0"
    },
    "scene" : 0,
    "scenes" : [
        {
            "name" : "Scene",
            "nodes" : [
                0,
                1,
                2
            ]
        }
    ],
    "nodes" : [
        {
            "name" : "Light",
            "rotation" : [
                0.16907575726509094,
                0.7558803558349609,
                -0.27217137813568115,
                0.570947527885437
            ],
            "translation" : [
                4.076245307922363,
                5.903861999511719,
                -1.0054539442062378
            ]
        },
        {
            "name" : "Camera",
            "rotation" : [
                0.483536034822464,
                0.33687159419059753,
                -0.20870360732078552,
                0.7804827094078064
            ],
            "translation" : [
                7.358891487121582,
                4.958309173583984,
                6.925790786743164
            ]
        },
        {
            "mesh" : 0,
            "name" : "model",
            "rotation" : [
                0.6295878887176514,
                -0.2773398160934448,
                0.7143287062644958,
                0.12820445001125336
            ],
            "translation" : [
                3.6039466857910156,
                -0.15850049257278442,
                0.5699628591537476
            ]
        }
    ],
    "materials" : [
        {
            "doubleSided" : true,
            "name" : "material0000",
            "pbrMetallicRoughness" : {
                "baseColorTexture" : {
                    "index" : 0,
                    "texCoord" : 0
                },
                "metallicFactor" : 0,
                "roughnessFactor" : 0.9666666388511658
            }
        },
        {
            "doubleSided" : true,
            "name" : "material0001",
            "pbrMetallicRoughness" : {
                "baseColorTexture" : {
                    "index" : 1,
                    "texCoord" : 0
                },
                "metallicFactor" : 0,
                "roughnessFactor" : 0.9666666388511658
            }
        }
    ],
    "meshes" : [
        {
            "name" : "model",
            "primitives" : [
                {
                    "attributes" : {
                        "POSITION" : 0,
                        "NORMAL" : 1,
                        "TEXCOORD_0" : 2
                    },
                    "indices" : 3,
                    "material" : 0
                },
                {
                    "attributes" : {
                        "POSITION" : 4,
                        "NORMAL" : 5,
                        "TEXCOORD_0" : 6
                    },
                    "indices" : 7,
                    "material" : 1
                }
            ]
        }
    ],
    "textures" : [
        {
            "sampler" : 0,
            "source" : 0
        },
        {
            "sampler" : 0,
            "source" : 1
        }
    ],
    "images" : [
        {
            "bufferView" : 4,
            "mimeType" : "image/jpeg",
            "name" : "texture0"
        },
        {
            "bufferView" : 9,
            "mimeType" : "image/jpeg",
            "name" : "texture1"
        }
    ],
    "accessors" : [
        {
            "bufferView" : 0,
            "componentType" : 5126,
            "count" : 2166,
            "max" : [
                -1.6351312398910522,
                1.8295650482177734,
                -1.9881609678268433
            ],
            "min" : [
                -2.5460453033447266,
                0.8743417263031006,
                -5.8804168701171875
            ],
            "type" : "VEC3"
        },
        {
            "bufferView" : 1,
            "componentType" : 5126,
            "count" : 2166,
            "type" : "VEC3"
        },
        {
            "bufferView" : 2,
            "componentType" : 5126,
            "count" : 2166,
            "type" : "VEC2"
        },
        {
            "bufferView" : 3,
            "componentType" : 5123,
            "count" : 10464,
            "type" : "SCALAR"
        },
        {
            "bufferView" : 5,
            "componentType" : 5126,
            "count" : 5916,
            "max" : [
                -1.631093144416809,
                1.8132619857788086,
                -1.9676189422607422
            ],
            "min" : [
                -2.8035073280334473,
                0.8588638305664062,
                -5.900676727294922
            ],
            "type" : "VEC3"
        },
        {
            "bufferView" : 6,
            "componentType" : 5126,
            "count" : 5916,
            "type" : "VEC3"
        },
        {
            "bufferView" : 7,
            "componentType" : 5126,
            "count" : 5916,
            "type" : "VEC2"
        },
        {
            "bufferView" : 8,
            "componentType" : 5123,
            "count" : 25845,
            "type" : "SCALAR"
        }
    ],
    "bufferViews" : [
        {
            "buffer" : 0,
            "byteLength" : 25992,
            "byteOffset" : 0
        },
        {
            "buffer" : 0,
            "byteLength" : 25992,
            "byteOffset" : 25992
        },
        {
            "buffer" : 0,
            "byteLength" : 17328,
            "byteOffset" : 51984
        },
        {
            "buffer" : 0,
            "byteLength" : 20928,
            "byteOffset" : 69312
        },
        {
            "buffer" : 0,
            "byteLength" : 951058,
            "byteOffset" : 90240
        },
        {
            "buffer" : 0,
            "byteLength" : 70992,
            "byteOffset" : 1041300
        },
        {
            "buffer" : 0,
            "byteLength" : 70992,
            "byteOffset" : 1112292
        },
        {
            "buffer" : 0,
            "byteLength" : 47328,
            "byteOffset" : 1183284
        },
        {
            "buffer" : 0,
            "byteLength" : 51690,
            "byteOffset" : 1230612
        },
        {
            "buffer" : 0,
            "byteLength" : 1086243,
            "byteOffset" : 1282304
        }
    ],
    "samplers" : [
        {
            "magFilter" : 9729,
            "minFilter" : 9986
        }
    ],
    "buffers" : [
        {
            "byteLength" : 2368548,
            "uri" : "data:application/octet-stream;base64,"
        }
    ]
}
